<svg xmlns="http://www.w3.org/2000/svg" xmlns:xlink="http://www.w3.org/1999/xlink" width="142" height="45" viewBox="0 0 142 45"><defs><clipPath id="b"><rect width="142" height="45"/></clipPath></defs><g id="a" clip-path="url(#b)"><rect width="142" height="45" fill="#fff"/><g transform="translate(6 8.968)"><path d="M0,26.97H4.274l8.478,18.936L21.193,26.97h4.239V51.117H21.472V34.578L14.106,51.117H11.361l-7.4-16.539V51.117H0Z" transform="translate(0 -24.365)"/><path d="M313.174,95.289c-5.489,0-9.554-3.891-9.554-9.9s3.891-9.868,9.554-9.868,9.311,3.787,9.311,9.416a12.177,12.177,0,0,1-.139,1.945H307.719a5.267,5.267,0,0,0,5.455,5.074,4.634,4.634,0,0,0,4.517-2.676h4.274C320.888,92.614,317.865,95.289,313.174,95.289Zm-5.419-11.6h10.6c-.069-2.953-2.4-4.83-5.35-4.83A5.213,5.213,0,0,0,307.755,83.686Z" transform="translate(-274.29 -68.225)"/><path d="M533.85,2.536A2.506,2.506,0,0,1,536.386,0a2.477,2.477,0,0,1,2.5,2.536,2.5,2.5,0,0,1-2.5,2.536A2.529,2.529,0,0,1,533.85,2.536Zm.521,5.073h3.961V26.752h-3.961V7.608Z" transform="translate(-482.28)"/><path d="M621.25,26.97H638.1V30.2h-6.427V51.117h-3.962V30.2H621.25Z" transform="translate(-561.237 -24.365)"/><path d="M832.473,75.521a8.148,8.148,0,0,1,6.636,3.092v-2.78h4V94.976h-4V92.128a8.245,8.245,0,0,1-6.706,3.162c-4.968,0-8.964-4.066-8.964-9.972s4-9.8,9.033-9.8Zm.834,3.439c-2.953,0-5.8,2.224-5.8,6.358s2.849,6.533,5.8,6.533,5.8-2.328,5.8-6.463S836.3,78.96,833.307,78.96Z" transform="translate(-743.895 -68.225)"/><path d="M1081,10.79h3.961V36.5H1081Z" transform="translate(-976.574 -9.748)"/><path d="M1175.98,10.79h3.961V25.73l6.95-8.373h5.489l-8.825,9.589,8.825,9.555h-5.351l-7.088-8.234V36.5h-3.961Z" transform="translate(-1062.379 -9.748)"/></g></g></svg>