<svg xmlns="http://www.w3.org/2000/svg" xmlns:xlink="http://www.w3.org/1999/xlink" width="244.913" height="43.325" viewBox="0 0 244.913 43.325">
  <defs>
    <linearGradient id="linear-gradient" y1="0.5" x2="1" y2="0.5" gradientUnits="objectBoundingBox">
      <stop offset="0"/>
      <stop offset="0" stop-color="#0ee6ff"/>
      <stop offset="1" stop-color="#005c90"/>
    </linearGradient>
  </defs>
  <g id="Logo" transform="translate(-18.6 -17.7)">
    <path id="Path_1" data-name="Path 1" d="M47.734,45.705s7.754-3.294,7.754-13.193c0-8.243-5.552-14.417-14.793-14.812H27.465V57.543H22.119V29.03l4.46-.019V25.435H18.6V60.988H30.928V28.974H39s4.065.094,4.065,3.858c0,3.952-3.444,4.235-5.458,4.1L51.63,57.525H45.57L39.3,48.152a21.218,21.218,0,0,0,4.329-.828L41.5,44.218a19.712,19.712,0,0,1-8.733.489l10.954,16.3h14.53Zm-4.517-6.587s3.369-1.412,3.369-6.531c0-5.138-4.875-6.851-6.681-6.982h-9v-4.5h9.448s11.518-.226,11.612,11.349a10.9,10.9,0,0,1-6.211,10.427Z" transform="translate(0)" fill="url(#linear-gradient)"/>
    <g id="Group_1" data-name="Group 1" transform="translate(61.963 39.494)">
      <path id="Path_2" data-name="Path 2" d="M255.531,140.2c4.762,0,7.039,2.654,7.039,5.966a5.724,5.724,0,0,1-4.818,5.816l5.082,8.488h-3.162l-4.818-8.281h-3.2v8.281H249V140.2Zm0,2.164h-3.9v7.679h3.9c2.993,0,4.31-1.619,4.31-3.9C259.841,143.851,258.561,142.364,255.531,142.364Z" transform="translate(-249 -138.939)" fill="#002a68"/>
      <path id="Path_3" data-name="Path 3" d="M345.486,176.768c-4.536,0-7.886-3.2-7.886-8.262,0-5.025,3.218-8.206,7.886-8.206a7.3,7.3,0,0,1,7.641,7.622,14.622,14.622,0,0,1-.094,1.6H340.31a5.018,5.018,0,0,0,5.176,5.006,4.381,4.381,0,0,0,4.479-2.936h2.842C352,174.51,349.438,176.768,345.486,176.768Zm-5.138-9.392H350.4c.038-3.105-2.3-4.818-5.025-4.818A4.916,4.916,0,0,0,340.348,167.377Z" transform="translate(-320.925 -155.256)" fill="#002a68"/>
      <path id="Path_4" data-name="Path 4" d="M440.866,160.4a6.585,6.585,0,0,1,5.929,3.162v-2.9h2.673v15.922h-2.673v-2.974a6.665,6.665,0,0,1-5.966,3.218c-4.235,0-7.528-3.35-7.528-8.281C433.319,163.6,436.594,160.4,440.866,160.4Zm.527,2.3c-2.9,0-5.383,2.127-5.383,5.872s2.465,5.966,5.383,5.966,5.4-2.183,5.4-5.928C446.794,164.9,444.31,162.7,441.393,162.7Z" transform="translate(-398.613 -155.337)" fill="#002a68"/>
      <path id="Path_5" data-name="Path 5" d="M543,133.5h2.654v21.512H543Z" transform="translate(-487.667 -133.5)" fill="#002a68"/>
      <path id="Path_6" data-name="Path 6" d="M628.831,140.2c4.762,0,7.039,2.654,7.039,5.966a5.724,5.724,0,0,1-4.818,5.816l5.082,8.488h-3.162l-4.818-8.281h-3.2v8.281H622.3V140.2Zm0,2.164h-3.9v7.679h3.9c2.993,0,4.31-1.619,4.31-3.9C633.122,143.851,631.861,142.364,628.831,142.364Z" transform="translate(-552.043 -138.939)" fill="#002a68"/>
      <path id="Path_7" data-name="Path 7" d="M718.686,176.768c-4.536,0-7.886-3.2-7.886-8.262,0-5.025,3.218-8.206,7.886-8.206a7.3,7.3,0,0,1,7.641,7.622,14.638,14.638,0,0,1-.094,1.6H713.51a5.018,5.018,0,0,0,5.176,5.006,4.381,4.381,0,0,0,4.479-2.936h2.842C725.2,174.51,722.638,176.768,718.686,176.768Zm-5.138-9.392H723.6c.038-3.105-2.3-4.818-5.025-4.818A4.927,4.927,0,0,0,713.548,167.377Z" transform="translate(-623.886 -155.256)" fill="#002a68"/>
      <path id="Path_8" data-name="Path 8" d="M813.712,176.849c-3.727,0-6.343-2.033-6.512-4.95h2.729c.151,1.543,1.506,2.71,3.745,2.71,2.089,0,3.256-1.054,3.256-2.353,0-3.538-9.41-1.487-9.41-7.415,0-2.447,2.3-4.442,5.834-4.442,3.519,0,5.834,1.882,6.023,5.006h-2.654c-.113-1.6-1.336-2.767-3.463-2.767-1.939,0-3.105.922-3.105,2.2,0,3.783,9.241,1.713,9.354,7.415C819.527,174.873,817.231,176.849,813.712,176.849Z" transform="translate(-702.143 -155.337)" fill="#002a68"/>
      <path id="Path_9" data-name="Path 9" d="M895.086,176.768c-4.536,0-7.886-3.2-7.886-8.262,0-5.025,3.218-8.206,7.886-8.206a7.3,7.3,0,0,1,7.641,7.622,14.637,14.637,0,0,1-.094,1.6H889.91a5.018,5.018,0,0,0,5.176,5.006,4.381,4.381,0,0,0,4.479-2.936h2.842C901.6,174.51,899.038,176.768,895.086,176.768Zm-5.157-9.392h10.05c.038-3.105-2.3-4.818-5.025-4.818A4.939,4.939,0,0,0,889.929,167.377Z" transform="translate(-767.087 -155.256)" fill="#002a68"/>
      <path id="Path_10" data-name="Path 10" d="M990.466,160.4a6.585,6.585,0,0,1,5.929,3.162v-2.9h2.673v15.922h-2.673v-2.974a6.665,6.665,0,0,1-5.966,3.218c-4.235,0-7.528-3.35-7.528-8.281C982.919,163.6,986.194,160.4,990.466,160.4Zm.527,2.3c-2.9,0-5.383,2.127-5.383,5.872s2.465,5.966,5.383,5.966c2.9,0,5.4-2.183,5.4-5.928C996.394,164.9,993.91,162.7,990.993,162.7Z" transform="translate(-844.775 -155.337)" fill="#002a68"/>
      <path id="Path_11" data-name="Path 11" d="M1095.254,177.823H1092.6V161.9h2.654v2.578a5.37,5.37,0,0,1,5.138-2.88v2.729h-.7c-2.522,0-4.442,1.129-4.442,4.818Z" transform="translate(-933.829 -156.311)" fill="#002a68"/>
      <path id="Path_12" data-name="Path 12" d="M1152.754,160.4c3.952,0,6.531,2.033,7.359,5.383h-2.842a4.329,4.329,0,0,0-4.5-3.143c-2.9,0-5.063,2.07-5.063,5.966,0,3.952,2.146,6.023,5.063,6.023a4.263,4.263,0,0,0,4.5-3.143h2.842c-.809,3.162-3.407,5.383-7.359,5.383-4.536,0-7.754-3.2-7.754-8.262C1145,163.6,1148.218,160.4,1152.754,160.4Z" transform="translate(-976.367 -155.337)" fill="#002a68"/>
      <path id="Path_13" data-name="Path 13" d="M1244,133.5h2.654v7.886a5.992,5.992,0,0,1,5.27-2.578c3.538,0,6.362,2.258,6.362,6.832v9.391h-2.616v-9.015c0-3.256-1.769-4.912-4.442-4.912-2.71,0-4.554,1.694-4.554,5.119v8.808H1244Z" transform="translate(-1056.734 -133.5)" fill="#002a68"/>
    </g>
  </g>
</svg>
