<svg id="strmnft" xmlns="http://www.w3.org/2000/svg" width="335.986" height="132.626" viewBox="0 0 335.986 132.626">
  <g id="Layer_2" data-name="Layer 2">
    <rect id="사각형_31" data-name="사각형 31" width="335.986" height="132.626" fill="none"/>
  </g>
  <g id="Layer_1" data-name="Layer 1" transform="translate(8.178 36.105)">
    <g id="white">
      <path id="패스_13" data-name="패스 13" d="M13.25,39.61a6.189,6.189,0,0,1-6.41-5.968V27.674h8.731v3.979H30.05V25.132H13.25a5.416,5.416,0,0,1-5.968-5.968V10.875a6.189,6.189,0,0,1,6.41-6.521H32.149a6.189,6.189,0,0,1,6.41,6.521v4.752H29.829V12.311h-13.7v5.637h16.8a5.416,5.416,0,0,1,5.968,5.968v9.726a6.079,6.079,0,0,1-6.41,6.41Z" transform="translate(60.578 7.618)" fill="#df1f26"/>
      <path id="패스_14" data-name="패스 14" d="M22.157,39.506v-27.3H10V4.36H43.157v7.847H30.889v27.3Z" transform="translate(92.343 7.723)" fill="#df1f26"/>
      <path id="패스_15" data-name="패스 15" d="M36.48,39.61l-6.41-11.052H22V39.61H13.27V4.354H37.7a6.189,6.189,0,0,1,6.41,6.521V22.59a5.968,5.968,0,0,1-4.31,6.079l6.963,11.052Zm-1.105-27.3H22.112V20.49H35.374Z" transform="translate(125.214 7.618)" fill="#df1f26"/>
      <path id="패스_16" data-name="패스 16" d="M47.938,39.606V16.176L40.644,39.606H32.576L25.281,16.176V39.606H16.55V4.35H28.486l6.189,19.12c.553,1.658,1.216,3.979,1.989,6.852.774-2.874,1.437-5.195,1.989-6.852L44.733,4.35H56.669V39.5H47.828Z" transform="translate(158.185 7.622)" fill="#df1f26"/>
      <path id="패스_17" data-name="패스 17" d="M51.912,29.165,8.256,3.966A4.973,4.973,0,0,0,.74,8.276V27.949l1.326-.995,4.863-2.874V14.8a2.542,2.542,0,0,1,3.758-2.21l8.179,4.752,11.052,6.521L43.07,31.375a2.542,2.542,0,0,1,0,4.31L30.139,43.2,19.087,49.722l-8.068,4.642a2.542,2.542,0,0,1-3.758-2.21V42.759L2.066,40A4.863,4.863,0,0,1,.851,39V58.674a4.973,4.973,0,0,0,7.515,4.31l44.209-25.2a4.973,4.973,0,0,0-.663-8.621Z" transform="translate(-0.74 -3.267)" fill="#df1f26"/>
      <path id="패스_18" data-name="패스 18" d="M42.211,39.606,34.364,25.239l-4.089-7.847V39.5h-9.5V4.35H30.938l9.947,18.236,2.874,5.305V4.35H52.49V39.5H42.211Z" transform="translate(200.605 7.622)"/>
      <path id="패스_19" data-name="패스 19" d="M32.825,27.674V39.61H24.094V10.874a6.3,6.3,0,0,1,6.521-6.521h22.1v7.958H32.825v7.4H51.171v7.958Z" transform="translate(233.975 7.618)"/>
      <path id="패스_20" data-name="패스 20" d="M38.052,39.506v-27.3H27V4.36H59.051v7.847H46.894v27.3Z" transform="translate(263.23 7.723)"/>
      <path id="패스_21" data-name="패스 21" d="M11.666,15.963l13.7-7.626L18.629,4.8,9.235,10.216,3.267,13.752a4.973,4.973,0,0,0,0,8.621L9.456,26.02l9.394,5.416L25.371,27.9l-13.7-7.626a2.542,2.542,0,0,1,0-4.31Z" transform="translate(-0.393 12.145)"/>
    </g>
  </g>
</svg>
