<?xml version="1.0" encoding="utf-8"?>
<!-- Generator: Adobe Illustrator 26.0.1, SVG Export Plug-In . SVG Version: 6.00 Build 0)  -->
<svg version="1.1" id="Layer_1" xmlns="http://www.w3.org/2000/svg" xmlns:xlink="http://www.w3.org/1999/xlink" x="0px" y="0px"
	 viewBox="0 0 841.89 473.39" style="enable-background:new 0 0 841.89 473.39;" xml:space="preserve">
<style type="text/css">
	.st0{fill:#2C9328;}
</style>
<g>
	<path class="st0" d="M260.82,202.59c-6.01,12.04-11.49,23.02-17.2,34.45c13.58,0.3,26.21-7.42,30.82-18.09
		c4.54-10.5-0.05-19.09-11.23-21.01c-30.41-5.24-52.96,13.67-54.72,45.86c-0.27,4.9-0.46,9.81-1.07,14.66
		c-2.52,20.03-8.86,23.5-26.89,14.96c-10.23,6.31-14.29,6.32-24.45,0.09c-12.32,14.32-43.67,14.23-53.84-1.72
		c-10.18-15.98-20.41-28.89-42.63-21.61c0-12.75,0-23.76,0-35.88c6.62,0,12.99,0.68,19.11-0.24c4.07-0.62,7.88-3.39,11.63-5.5
		c1.12-0.64,1.88-2.21,2.44-3.52c9.49-22.07,27.47-27.06,49.02-23.66c5.1,0.81,9.76,4.44,16.06,7.48c9.06-4.7,14.77-4.47,23.37,2.26
		c8.98-6.86,16.44-6.96,24.45-1.04c23.22-6.39,45.28-15.92,69.27-7.98c15.86,5.25,21.62,22.27,13.83,39.49
		c-7.48,16.53-22.03,22.56-38.69,25.42c-3.8,0.66-10.06,1.7-10.63,3.8c-1.71,6.34-1.41,13.28-1.34,19.98
		c0.02,1.61,2.22,3.21,3.43,4.83c-9.86,5.2-19.47,1.16-20.57-9.25c-2.3-21.78,5.21-41.85,14.58-60.58
		C239.94,197.01,251.18,200.32,260.82,202.59z"/>
	<path class="st0" d="M491.38,250.73c-18.87,20.79-27.49,16.2-33.92,2.88c-3.21,2.89-6.17,6.11-9.67,8.56
		c-8.61,6.02-18.53,2.52-19.11-7.85c-0.58-10.39,2.09-20.94,2.83-31.46c0.24-3.53,5.53-8.15-1.46-10.8c0.84-2.18,1.35-4.59,2.6-6.49
		c2.2-3.33,5.73-6,7.17-9.57c5.71-14.15,12.34-16.56,26.83-8.76c-2.3,5.17-4.6,10.39-6.78,15.3c1.7,2.19,3.16,4.09,4.62,5.99
		c-1.88,1.44-3.73,2.93-5.67,4.3c-1.12,0.79-3.17,1.11-3.5,2.08c-4.39,12.95-8.55,25.98-11.36,39.63
		c8.31-3.15,13.05-8.74,15.37-16.45c2.07-6.89,3.9-13.87,6.2-20.69c4.54-13.45,13.09-16.11,26.47-8.05
		c-6.73,14.46-14.36,28.78-15.33,45.36c8.27-4.79,13.22-11.38,14.38-20.92c1.47-12.04,6.61-22.23,17.78-28.08
		c12.71-6.65,25.54,1,25.62,14.93c0.05,8.95-2.63,11.2-12.22,10.42c1.33-3.98,2.69-8.03,4.4-13.17
		c-11.66,3.9-20.32,25.55-14.43,33.96c1.59,2.26,8.63,3.87,10.04,2.52c5.35-5.11,11.05-10.94,13.62-17.65
		c5.23-13.67,7.99-28.26,12.74-42.14c4.65-13.59,13.35-15.86,25.86-8.1c-6.66,17.95-13.31,35.84-19.95,53.74
		c0.46,0.17,0.92,0.33,1.38,0.5c6.37-8.86,12.3-18.1,19.32-26.42c3.31-3.94,8.35-7.56,13.24-8.77c9.01-2.23,14.27,4.86,11.03,13.62
		c-3.2,8.64-6.65,17.18-9.68,25.88c-1.09,3.14-1.28,6.59-2.31,12.15c9.36-6.15,13.69-12.79,15.89-21.56
		c1.79-7.15,3.93-14.64,7.89-20.7c3.06-4.66,8.72-8.61,14.06-10.53c6.62-2.38,13.85-1.24,18.85,5.04
		c4.66,5.83,4.53,12.29,1.81,18.78c-3.02,7.19-8.65,10.51-16.47,10.12c-1.72-0.09-3.44-0.01-5.61-0.01
		c-1.32,6.1-3.4,12.73,3.07,16.31c6.66,3.69,12.63-0.5,16.33-5.92c3.3-4.84,5.28-10.67,7.33-16.25c1.57-4.3,2.14-8.98,3.51-13.38
		c4.39-14.05,13.96-17.2,27.04-8.77c-2.46,4.43-4.94,8.89-7.42,13.35c0.2,0.15,0.4,0.32,0.61,0.47c4.49-4.91,8.4-10.64,13.69-14.45
		c3.73-2.68,9.67-4.31,13.97-3.37c2.18,0.48,4.01,7.64,4.06,11.81c0.15,12.53-6.43,20.99-14.88,20.37c-1.3-0.09-2.53-0.95-3.79-1.46
		c1.25-4.32,2.37-8.2,3.49-12.07c-0.68-0.47-1.35-0.93-2.03-1.4c-2.59,2.28-6.02,4.09-7.61,6.93c-4.9,8.75-9,17.95-13.61,26.88
		c-1.52,2.99-3.62,5.7-5.44,8.54c-3.41-2.23-7.1-4.15-10.08-6.84c-1.51-1.35-1.75-4.12-1.94-4.61c-8.23,3.29-16.19,7.84-24.72,9.52
		c-10.02,1.97-17.7-3.34-21.73-13.34c-7.99,6.74-13.25,19.45-25.72,13.3c-12.03-5.93-6.11-18.25-7.09-30.27
		c-5.26,8.92-9.58,16.45-14.11,23.84c-2.25,3.64-3.12,10.33-9.22,8.01c-4.29-1.62-7.57-6.05-11.14-9.39
		c-0.71-0.66-0.69-2.1-0.41-1.13c-8.07,3.12-15.83,7.44-24.1,8.97C502.22,265.81,494.95,260.45,491.38,250.73z M624.42,231.09
		c13.6-1.26,16.1-4.86,10.95-14.51C631.86,221.24,628.74,225.36,624.42,231.09z"/>
	<path class="st0" d="M321.46,252.74c-2.39,2.28-5.74,6.32-9.88,9.24c-9.41,6.65-19.12,2.33-19.57-9.19
		c-0.34-8.81,0.63-17.88,2.49-26.52c2.18-10.09,5.68-19.95,9.11-29.72c5.22-14.81,12.78-17.29,26.85-9.49
		c-8.86,21.97-18.97,43.51-21.57,67.63c8-4.38,12.06-10.79,14.29-19.63c2.11-8.35,5.5-17.15,10.84-23.73
		c8.39-10.37,19.39-9.93,29.21-1.08c8.04-6.48,14.25-6.81,23.93-1.46c-5.71,15.07-11.41,30.13-17.83,47.08
		c12.34-4.67,20.02-18.13,18.36-27.41c-1.55-8.66,2.24-15.2,9.47-19.67c9.35-5.79,21.35-6.18,26.87-1.22
		c5.16,4.63,4.16,13.2-1.38,18.63c-4.52-2.55-8.58-5.1-12.91-7.07c-0.93-0.42-3.59,0.92-4.02,2.02c-0.44,1.1,0.49,3.41,1.55,4.31
		c3.08,2.58,6.76,4.45,9.79,7.07c10.16,8.81,8.38,23.31-3.46,29.45c-10.23,5.3-23.51,3.05-31.27-5.29
		c-15.27,11.3-20.45,11.11-27.52-0.37c-5.83,2.13-11.66,6.2-17.1,5.71C332.42,261.54,327.53,256.43,321.46,252.74z M342.67,255.3
		c10.25-5.57,17.26-26.17,13.1-36.81C346.47,223.03,340.26,240.03,342.67,255.3z M391.81,237.04c-1.02,3.4-2.92,6.32-2.33,8.59
		c0.78,3,3,6.92,5.54,7.81c2.9,1.03,6.83-0.83,10.31-1.42c-1.47-3.01-2.43-6.48-4.57-8.91C398.63,240.7,395.32,239.33,391.81,237.04
		z"/>
	<path class="st0" d="M754.66,227.8c-0.74,12.8-5.21,24.29-16.35,32.28c-13.8,9.9-28.41,4.1-31.02-12.58
		c-2.05-13.1,1.21-25.22,9.93-35.42c6.8-7.96,17.32-10.77,25.74-7.03C752.61,209.33,754.37,217.95,754.66,227.8z M727.17,257.31
		c3.71-2.48,7.37-3.57,8.33-5.81c3.55-8.34,6.52-16.98,8.95-25.71c0.56-1.98-1.91-4.8-2.98-7.23c-2.33,1.39-5.55,2.21-6.84,4.25
		C728.45,232.54,725.34,243.17,727.17,257.31z"/>
	<path class="st0" d="M486.9,202.52c-4.62-0.9-10.93,0.61-11.43-7.07c-0.42-6.48,4.36-10.96,11.55-10.82
		c5.71,0.11,11.63,1.03,11.59,8.35C498.58,200,494.11,203.22,486.9,202.52z"/>
</g>
</svg>
